<?xml version="1.0" encoding="utf-8"?>
<svg version="1.1" xmlns:xlink="http://www.w3.org/1999/xlink" width="15px" height="15px" xmlns="http://www.w3.org/2000/svg">
  <g transform="matrix(1 0 0 1 -47 -7 )">
    <path d="M 54.5 7  C 58.7 7  62 10.3  62 14.5  C 62 18.7  58.7 22  54.5 22  C 50.3 22  47 18.7  47 14.5  C 47 10.3  50.3 7  54.5 7  Z " fill-rule="nonzero" fill="#000000" stroke="none" />
    <path d="M 54.5 7.5  C 58.42 7.5  61.5 10.58  61.5 14.5  C 61.5 18.42  58.42 21.5  54.5 21.5  C 50.58 21.5  47.5 18.42  47.5 14.5  C 47.5 10.58  50.58 7.5  54.5 7.5  Z " stroke-width="1" stroke="#797979" fill="none" />
  </g>
</svg>