<?xml version="1.0" encoding="utf-8"?>
<svg version="1.1" xmlns:xlink="http://www.w3.org/1999/xlink" width="15px" height="15px" xmlns="http://www.w3.org/2000/svg">
  <g transform="matrix(1 0 0 1 -88 -7 )">
    <path d="M 95.5 7  C 99.7 7  103 10.3  103 14.5  C 103 18.7  99.7 22  95.5 22  C 91.3 22  88 18.7  88 14.5  C 88 10.3  91.3 7  95.5 7  Z " fill-rule="nonzero" fill="#ffffff" stroke="none" />
    <path d="M 95.5 7.5  C 99.42 7.5  102.5 10.58  102.5 14.5  C 102.5 18.42  99.42 21.5  95.5 21.5  C 91.58 21.5  88.5 18.42  88.5 14.5  C 88.5 10.58  91.58 7.5  95.5 7.5  Z " stroke-width="1" stroke="#797979" fill="none" />
  </g>
</svg>