<?xml version="1.0" encoding="utf-8"?>
<svg version="1.1" xmlns:xlink="http://www.w3.org/1999/xlink" width="15px" height="15px" xmlns="http://www.w3.org/2000/svg">
  <g transform="matrix(1 0 0 1 -86 -129 )">
    <path d="M 7.5 15  C 3.3 15  0 11.7  0 7.5  C 0 6.15210781857849  0.339880045239966 4.89691019494967  0.940311710507757 3.81373555432575  C 0.940436439332032 3.81351054437502  0.940561179399779 3.81328554184753  0.940685930710288 3.813060546744  C 2.21128935848954 1.52146498231787  4.64817218165597 0  7.5 0  C 10.7471958274707 0  13.4564181476994 1.97256952655403  14.5185207206823 4.80856233965821  C 14.8301667737571 5.64070980755312  15 6.54719582747072  15 7.5  C 15 8.34914603084692  14.8651098843753 9.16150384834162  14.6151636628718 9.91723944273815  C 13.6288394524598 12.8994822185633  10.8508539691531 15  7.5 15  Z " fill-rule="nonzero" fill="#ff5918" stroke="none" transform="matrix(1 0 0 1 86 129 )" />
  </g>
</svg>