<?xml version="1.0" encoding="utf-8"?>
<svg version="1.1" xmlns:xlink="http://www.w3.org/1999/xlink" width="14px" height="21px" xmlns="http://www.w3.org/2000/svg">
  <g transform="matrix(1 0 0 1 -1355 -504 )">
    <path d="M 12.5434403645833 8.42925283314098  L 6.98341860977564 8.42925283314098  C 9.13786216613248 0.494961834161932  5.49898914930556 0.0897218195134944  5.49898914930556 0.0897218195134944  C 3.95668439837073 0.0897218195134944  4.27640951522436 1.30579958496094  4.15977407184829 1.5085269087358  C 4.15977407184829 5.38874840198864  0.0266652043269241 8.42925283314098  0 8.42925283314098  L 0 19.4329037109375  C 0.0266652043269241 20.5190604758523  1.51109466479701 20.9102543401545  2.0934109508547 20.9102543401545  L 10.4473264723558 20.9102543401545  C 11.2335455462073 20.9102543401545  11.8737849859776 18.8542449030096  11.8737849859776 18.8542449030096  C 13.9405546641293 11.8464995527788  13.9405546641293 9.76142005837181  13.9405546641293 9.76142005837181  C 13.9405785723825 8.31356877552379  12.5434403645833 8.42925283314098  12.5434403645833 8.42925283314098  Z " fill-rule="nonzero" fill="#0077e5" stroke="none" transform="matrix(1 0 0 1 1355 504 )" />
  </g>
</svg>