<?xml version="1.0" encoding="utf-8"?>
<svg version="1.1" xmlns:xlink="http://www.w3.org/1999/xlink" width="17px" height="17px" xmlns="http://www.w3.org/2000/svg">
  <g transform="matrix(1 0 0 1 -1432 -235 )">
    <path d="M 16.17236328125 1.5642578125  C 16.17236328125 1.26923828125  15.99609375 0.99833984375  15.72333984375 0.8814453125  C 15.6212890625 0.8369140625  15.2576171875 0.71630859375  14.905078125 1.0298828125  C 14.8791015625 1.05400390625  14.8494140625 1.07998046875  14.8123046875 1.115234375  C 13.55615234375 2.30087890625  11.60234375 3.4234375  9.42958984375 2.05224609375  C 8.321875 1.2859375  7.2234375 0.7478515625  6.1658203125 0.45283203125  C 5.27890625 0.2060546875  4.4142578125 0.12626953125  3.59599609375 0.21904296875  C 2.2841796875 0.36748046875  1.4455078125 0.9185546875  1.13935546875 1.15791015625  C 0.951953124999999 1.293359375  0.829492187499999 1.5123046875  0.829492187499999 1.76279296875  L 0.829492187499999 1.9427734375  C 0.827636718749999 1.95947265625  0.827636718749999 1.976171875  1 1.99287109375  L 1 16.07587890625  C 0.827636718749999 16.4859375  1.159765625 16.81806640625  1.56982421875 16.81806640625  C 1.9798828125 16.81806640625  2.31201171875 16.4859375  2.31201171875 16.07587890625  L 2.31201171875 11.17373046875  C 3.1748046875 10.7822265625  5.38837890625 10.20517578125  8.60205078125 12.39833984375  C 8.61318359375 12.40576171875  8.626171875 12.41318359375  8.6373046875 12.42060546875  C 9.487109375 12.930859375  10.39814453125 13.18876953125  11.357421875 13.18876953125  C 11.5689453125 13.18876953125  11.7841796875 13.17578125  11.9994140625 13.15166015625  C 12.85849609375 13.05146484375  13.73056640625 12.75458984375  14.5859375 12.26845703125  C 15.0126953125 12.02724609375  15.350390625 11.7841796875  15.56005859375 11.62275390625  C 15.684375 11.52626953125  15.7771484375 11.44833984375  15.8328125 11.40009765625  C 15.96083984375 11.290625  16.17236328125 11.105078125  16.17236328125 10.763671875  L 16.17236328125 1.5642578125  Z M 1.56982421875 1.02060546875  C 1.590234375 1.02060546875  1.61064453125 1.0224609375  1.6310546875 1.0224609375  C 1.6125 1.02060546875  1.59208984375 1.02060546875  1.5716796875 1.02060546875  L 1.55869140625 1.02060546875  L 1.56982421875 1.02060546875  Z M 1.49931640625 1.02431640625  C 1.50859375 1.02431640625  1.5197265625 1.0224609375  1.52900390625 1.0224609375  C 1.5197265625 1.0224609375  1.50859375 1.02431640625  1.49931640625 1.02431640625  Z M 1.4380859375 1.03173828125  C 1.4529296875 1.0298828125  1.46591796875 1.02802734375  1.47890625 1.026171875  C 1.4640625 1.02802734375  1.45107421875 1.0298828125  1.4380859375 1.03173828125  Z M 1.23212890625 1.10224609375  C 1.29521484375 1.070703125  1.36201171875 1.0484375  1.4306640625 1.03359375  C 1.36015625 1.04658203125  1.293359375 1.070703125  1.23212890625 1.10224609375  Z M 1.19501953125 1.12265625  C 1.20615234375 1.11708984375  1.21728515625 1.10966796875  1.22841796875 1.1041015625  C 1.21728515625 1.10966796875  1.20615234375 1.11708984375  1.19501953125 1.12265625  Z M 14.68798828125 3.11728515625  L 14.68798828125 10.42041015625  C 14.385546875 10.6560546875  13.79365234375 11.07353515625  13.0384765625 11.36669921875  C 11.72666015625 11.876953125  10.50947265625 11.80830078125  9.4203125 11.15888671875  C 8.358984375 10.43896484375  7.2939453125 9.9212890625  6.2548828125 9.6244140625  C 5.3865234375 9.37578125  4.53115234375 9.27744140625  3.71103515625 9.33310546875  C 3.16552734375 9.37021484375  2.6998046875 9.4685546875  2.3138671875 9.5873046875  L 2.3138671875 2.1580078125  C 2.6033203125 1.991015625  3.09130859375 1.7720703125  3.76484375 1.69599609375  C 5.19541015625 1.5345703125  6.8671875 2.0837890625  8.59833984375 3.282421875  C 8.60576171875 3.28798828125  8.6150390625 3.2935546875  8.6224609375 3.29912109375  C 9.45 3.82421875  10.318359375 4.11552734375  11.20341796875 4.16376953125  C 11.93447265625 4.20458984375  12.6748046875 4.0802734375  13.40400390625 3.79453125  C 13.8919921875 3.60341796875  14.32431640625 3.3603515625  14.68798828125 3.11728515625  Z " fill-rule="nonzero" fill="#000000" stroke="none" transform="matrix(1 0 0 1 1432 235 )" />
  </g>
</svg>