<?xml version="1.0" encoding="utf-8"?>
<svg version="1.1" xmlns:xlink="http://www.w3.org/1999/xlink" width="17px" height="17px" xmlns="http://www.w3.org/2000/svg">
  <g transform="matrix(1 0 0 1 -1364 -235 )">
    <path d="M 17 13.3571428642578  C 17 14.0274285761719  16.456 14.5714285761719  15.7857142880859 14.5714285761719  L 4.38903571191406 14.5714285761719  L 0 16.9927142880859  L 0 7.28389286425781  L 0 1.21428571191406  C 0 0.543392864257813  0.543392864257813 0  1.21428571191406 0  L 15.7857142880859 0  C 16.456 0  17 0.543392864257813  17 1.21428571191406  L 17 13.3571428642578  Z M 15.7857142880859 12.75  L 15.7857142880859 1.82142857617187  C 15.7857142880859 1.48628571191406  15.5137142880859 1.21428571191406  15.1785714238281 1.21428571191406  L 1.82142857617187 1.21428571191406  C 1.48628571191406 1.21428571191406  1.21428571191406 1.48628571191406  1.21428571191406 1.82142857617187  L 1.21428571191406 9.71367857617187  L 1.21428571191406 12.75  L 1.21428571191406 14.5756785761719  L 3.73453571191406 13.3571428642578  L 15.1785714238281 13.3571428642578  C 15.5137142880859 13.3571428642578  15.7857142880859 13.0851428642578  15.7857142880859 12.75  Z M 12.1428571357422 5.46428571191406  C 12.1428571357422 5.79942857617188  11.8708571357422 6.07142857617188  11.5357142880859 6.07142857617188  L 3.03571428808594 6.07142857617188  C 2.70057142382813 6.07142857617188  2.42857142382813 5.79942857617188  2.42857142382813 5.46428571191406  C 2.42857142382813 5.12914286425781  2.70057142382813 4.85714286425781  3.03571428808594 4.85714286425781  L 11.5357142880859 4.85714286425781  C 11.8708571357422 4.85714286425781  12.1428571357422 5.12914286425781  12.1428571357422 5.46428571191406  Z M 2.42857142382813 9.10714286425781  C 2.42857142382813 8.772  2.70057142382813 8.5  3.03571428808594 8.5  L 6.67857142382812 8.5  C 7.01371428808594 8.5  7.28571428808594 8.772  7.28571428808594 9.10714286425781  C 7.28571428808594 9.44228571191406  7.01371428808594 9.71428571191406  6.67857142382812 9.71428571191406  L 3.03571428808594 9.71428571191406  C 2.70057142382813 9.71428571191406  2.42857142382813 9.44228571191406  2.42857142382813 9.10714286425781  Z " fill-rule="nonzero" fill="#666666" stroke="none" transform="matrix(1 0 0 1 1364 235 )" />
  </g>
</svg>