<?xml version="1.0" encoding="utf-8"?>
<svg version="1.1" xmlns:xlink="http://www.w3.org/1999/xlink" width="21px" height="22px" xmlns="http://www.w3.org/2000/svg">
  <g transform="matrix(1 0 0 1 -1466 -30 )">
    <path d="M 3.240234375 18.3641826923077  C 3.41341145833333 18.1967147435897  3.5 17.9983974358974  3.5 17.7692307692308  C 3.5 17.5400641025641  3.41341145833333 17.3417467948718  3.240234375 17.1742788461538  C 3.06705729166667 17.0068108974359  2.86197916666667 16.9230769230769  2.625 16.9230769230769  C 2.38802083333333 16.9230769230769  2.18294270833333 17.0068108974359  2.009765625 17.1742788461538  C 1.83658854166667 17.3417467948718  1.75 17.5400641025641  1.75 17.7692307692308  C 1.75 17.9983974358974  1.83658854166667 18.1967147435897  2.009765625 18.3641826923077  C 2.18294270833333 18.5316506410256  2.38802083333333 18.6153846153846  2.625 18.6153846153846  C 2.86197916666667 18.6153846153846  3.06705729166667 18.5316506410256  3.240234375 18.3641826923077  Z M 18.9560546875 11.2247596153846  C 19.1520182291667 10.8193108974359  19.25 10.4623397435897  19.25 10.1538461538462  C 19.25 9.70432692307692  19.072265625 9.30989583333333  18.716796875 8.97055288461539  C 18.361328125 8.63120993589744  17.9557291666667 8.46153846153846  17.5 8.46153846153846  L 12.6875 8.46153846153846  C 12.6875 7.95032051282051  12.90625 7.24739583333333  13.34375 6.35276442307692  C 13.78125 5.45813301282051  14 4.75080128205128  14 4.23076923076923  C 14 3.36698717948718  13.8541666666667 2.72796474358974  13.5625 2.31370192307692  C 13.2708333333333 1.8994391025641  12.6875 1.69230769230769  11.8125 1.69230769230769  C 11.5755208333333 1.92147435897436  11.40234375 2.29607371794872  11.29296875 2.81610576923077  C 11.18359375 3.33613782051282  11.0445963541667 3.88922275641025  10.8759765625 4.47536057692308  C 10.7073567708333 5.0614983974359  10.4361979166667 5.54407051282051  10.0625 5.92307692307692  C 9.86197916666667 6.12580128205128  9.51106770833333 6.52684294871795  9.009765625 7.12620192307692  C 8.97330729166667 7.17027243589744  8.86848958333333 7.30248397435897  8.6953125 7.52283653846154  C 8.52213541666667 7.7431891025641  8.37858072916667 7.92387820512821  8.2646484375 8.06490384615384  C 8.15071614583333 8.20592948717949  7.99348958333333 8.39322916666667  7.79296875 8.62680288461539  C 7.59244791666667 8.8603766025641  7.41015625 9.05428685897436  7.24609375 9.20853365384616  C 7.08203125 9.36278044871795  6.90657552083333 9.51923076923077  6.7197265625 9.67788461538462  C 6.53287760416667 9.83653846153846  6.3505859375 9.95552884615384  6.1728515625 10.0348557692308  C 5.9951171875 10.1141826923077  5.83333333333333 10.1538461538462  5.6875 10.1538461538462  L 5.25 10.1538461538462  L 5.25 18.6153846153846  L 5.6875 18.6153846153846  C 5.80598958333333 18.6153846153846  5.94954427083333 18.6286057692308  6.1181640625 18.6550480769231  C 6.28678385416667 18.6814903846154  6.43717447916667 18.7101362179487  6.5693359375 18.7409855769231  C 6.70149739583333 18.7718349358974  6.87467447916667 18.8203125  7.0888671875 18.8864182692308  C 7.30305989583333 18.9525240384615  7.46256510416667 19.0032051282051  7.5673828125 19.0384615384615  C 7.67220052083333 19.0737179487179  7.833984375 19.1288060897436  8.052734375 19.2037259615385  C 8.271484375 19.2786458333333  8.40364583333333 19.3249198717949  8.44921875 19.3425480769231  C 10.3723958333333 19.9859775641026  11.9309895833333 20.3076923076923  13.125 20.3076923076923  L 14.779296875 20.3076923076923  C 16.529296875 20.3076923076923  17.404296875 19.5717147435897  17.404296875 18.0997596153846  C 17.404296875 17.8705929487179  17.3815104166667 17.6237980769231  17.3359375 17.359375  C 17.609375 17.2183493589744  17.8258463541667 16.9869791666667  17.9853515625 16.6652644230769  C 18.1448567708333 16.3435496794872  18.224609375 16.0196314102564  18.224609375 15.6935096153846  C 18.224609375 15.3673878205128  18.142578125 15.0633012820513  17.978515625 14.78125  C 18.4615885416667 14.3405448717949  18.703125 13.8161057692308  18.703125 13.2079326923077  C 18.703125 12.9875801282051  18.6575520833333 12.7429887820513  18.56640625 12.4741586538462  C 18.4752604166667 12.205328525641  18.361328125 11.9959935897436  18.224609375 11.8461538461538  C 18.5162760416667 11.8373397435897  18.7600911458333 11.6302083333333  18.9560546875 11.2247596153846  Z M 19.9609375 7.77403846153846  C 20.6536458333333 8.44391025641025  21 9.23277243589744  21 10.140625  C 21 10.9250801282051  20.7766927083333 11.6434294871795  20.330078125 12.2956730769231  C 20.412109375 12.5865384615385  20.453125 12.890625  20.453125 13.2079326923077  C 20.453125 13.8866185897436  20.2799479166667 14.521233974359  19.93359375 15.1117788461538  C 19.9609375 15.296875  19.974609375 15.4863782051282  19.974609375 15.6802884615385  C 19.974609375 16.5705128205128  19.701171875 17.3549679487179  19.154296875 18.0336538461538  C 19.1634114583333 19.2588141025641  18.7760416666667 20.2261618589744  17.9921875 20.9356971153846  C 17.2083333333333 21.6452323717949  16.173828125 22  14.888671875 22  L 14.396484375 22  L 13.125 22  C 12.25 22  11.3863932291667 21.9008413461538  10.5341796875 21.7025240384615  C 9.68196614583333 21.5042067307692  8.6953125 21.2155448717949  7.57421875 20.8365384615385  C 6.51692708333333 20.4839743589744  5.88802083333333 20.3076923076923  5.6875 20.3076923076923  L 1.75 20.3076923076923  C 1.26692708333333 20.3076923076923  0.8544921875 20.1424278846154  0.5126953125 19.8118990384615  C 0.1708984375 19.4813701923077  0 19.0825320512821  0 18.6153846153846  L 0 10.1538461538462  C 0 9.68669871794872  0.1708984375 9.28786057692308  0.5126953125 8.95733173076923  C 0.8544921875 8.62680288461539  1.26692708333333 8.46153846153846  1.75 8.46153846153846  L 5.49609375 8.46153846153846  C 5.82421875 8.25  6.44856770833333 7.56690705128205  7.369140625 6.41225961538462  C 7.89778645833333 5.75120192307692  8.38541666666667 5.18709935897436  8.83203125 4.71995192307692  C 9.05078125 4.49959935897436  9.21256510416667 4.12279647435897  9.3173828125 3.58954326923077  C 9.42220052083333 3.05629006410256  9.56119791666667 2.49879807692308  9.734375 1.91706730769231  C 9.90755208333333 1.33533653846154  10.1901041666667 0.859375  10.58203125 0.489182692307691  C 10.9375 0.163060897435899  11.34765625 0  11.8125 0  C 12.578125 0  13.2662760416667 0.143229166666668  13.876953125 0.4296875  C 14.4876302083333 0.716145833333332  14.9524739583333 1.16346153846154  15.271484375 1.77163461538462  C 15.5904947916667 2.37980769230769  15.75 3.19951923076923  15.75 4.23076923076923  C 15.75 5.05048076923077  15.53125 5.89663461538462  15.09375 6.76923076923077  L 17.5 6.76923076923077  C 18.4479166666667 6.76923076923077  19.2682291666667 7.10416666666667  19.9609375 7.77403846153846  Z " fill-rule="nonzero" fill="#797979" stroke="none" transform="matrix(1 0 0 1 1466 30 )" />
  </g>
</svg>