<?xml version="1.0" encoding="utf-8"?>
<svg version="1.1" xmlns:xlink="http://www.w3.org/1999/xlink" width="39px" height="39px" xmlns="http://www.w3.org/2000/svg">
  <g transform="matrix(1 0 0 1 -810 -41 )">
    <path d="M 27.165219446656 36.121435546875  C 26.9340353801751 35.518310546875  26.2511084295382 35.22060546875  25.6462455214968 35.453759765625  C 24.9422240094697 35.7258534270154  24.2210930547995 35.9507908776759  23.4875733976911 36.127099609375  C 22.2630201522673 36.4225741376067  21.0099717757195 36.5820553807901  19.7508820163217 36.602685546875  C 10.3072676154459 36.76064453125  2.52982807523885 29.249560546875  2.37399109275477 19.82939453125  C 2.21805707603502 10.407080078125  9.74505125398088 2.641650390625  19.1882290007962 2.483349609375  C 28.6314552647293 2.3251953125  36.4103503184713 9.8376953125  36.5668665406051 19.258935546875  C 36.6453187201433 24.0279296875  34.7458250398089 28.515185546875  31.3815510549363 31.778564453125  C 31.1534143162872 31.9980024915672  31.0243646002122 32.3017870404511  31.0243646002122 32.6193855670027  C 31.0243646002122 32.9253440519202  31.1441542646458 33.2189804696594  31.3577776671974 33.436669921875  C 31.8125564963664 33.8994916154232  32.5524097486144 33.9087800305519  33.0185186106688 33.45751953125  C 36.8397268113057 29.753955078125  39.0043665406051 24.64560546875  38.9152891122611 19.21875  C 38.7385412519904 8.502490234375  29.8875634454618 -0.038769531249998  19.149318272293 0.141259765625003  C 8.41068496218152 0.319970703125003  -0.152586335589181 9.153759765625  0.0240159733280158 19.86748046875  C 0.200618282245213 30.5837890625  9.05052871218152 39.12373046875  19.7894046078822 38.94375  C 21.2206808935504 38.9208861857205  22.6451374415087 38.7399520681627  24.0371753085191 38.40419921875  C 24.8725008225409 38.2048666320817  25.693498943912 37.9489949107675  26.4945673268312 37.638330078125  C 27.0989935808121 37.40439453125  27.3997997113853 36.723974609375  27.165219446656 36.121435546875  Z " fill-rule="nonzero" fill="#006dd2" stroke="none" transform="matrix(1 0 0 1 810 41 )" />
  </g>
</svg>