<?xml version="1.0" encoding="utf-8"?>
<svg version="1.1" xmlns:xlink="http://www.w3.org/1999/xlink" width="50px" height="42px" xmlns="http://www.w3.org/2000/svg">
  <g transform="matrix(1 0 0 1 -805 -37 )">
    <path d="M 33.6095703125 39.1187642045455  C 33.380419921875 39.2670170454545  33.14501953125 39.4083096590909  32.89833984375 39.5529829545455  C 32.5341417944248 39.7646709387031  32.3093408587939 40.1588934336487  32.3093408587939 40.5858819000867  C 32.3093408587939 40.7952506366712  32.3636222622316 41.0009094685805  32.46669921875 41.1820738636364  C 32.79248046875 41.7541548295455  33.516015625 41.9505823863636  34.080810546875 41.6179829545455  C 34.3516671832098 41.4618635345504  34.6187077274295 41.2989780087275  34.881689453125 41.1294744318182  C 35.2208373852703 40.9114628358077  35.4265021362913 40.5316113146541  35.4265021362913 40.1232352711593  C 35.4265021362913 39.8954198250733  35.3622765522528 39.6723919534577  35.241455078125 39.4806463068182  C 34.889794921875 38.9297940340909  34.158935546875 38.7653835227273  33.609619140625 39.1187144886364  Z M 25.559814453125 11.9313707386364  C 25.51103515625 11.1845383522727  24.874560546875 10.6094247159091  24.134814453125 10.6512357954545  C 23.827490234375 10.6699289772727  23.51689453125 10.6758451704545  23.197314453125 10.6805184659091  C 22.4684302850912 10.6856473558212  21.8802105228073 11.2887154114752  21.8802105228073 12.0308697415394  C 21.8802105228073 12.0388686535616  21.8802803252518 12.0468674077102  21.880419921875 12.0548650568182  C 21.89541015625 12.8074644886364  22.507275390625 13.4081818181818  23.244189453125 13.3990838068182  C 23.6029296875 13.3952556818182  23.95439453125 13.3825284090909  24.305224609375 13.3638352272727  C 25.0097896275599 13.3268546668642  25.5624285135411 12.7344142585523  25.5624285135411 12.0160864292613  C 25.5624285135411 11.9878269637775  25.5615567302316 11.9595744701899  25.559814453125 11.9313707386364  Z M 11.47626953125 23.2552627840909  C 12.20625 23.3963565340909  12.912060546875 22.9133167613636  13.054150390625 22.1759801136364  C 13.798974609375 18.3493465909091  16.53623046875 15.1876633522727  20.285595703125 13.9836434659091  C 20.99248046875 13.7560440340909  21.384375 12.9894744318182  21.164599609375 12.2767471590909  C 20.943310546875 11.5614346590909  20.187939453125 11.1670880681818  19.481005859375 11.3947372159091  C 14.7841796875 12.9031178977273  11.347705078125 16.8676633522727  10.41728515625 21.6651988636364  C 10.2751953125 22.403828125  10.74853515625 23.1127272727273  11.47626953125 23.2552627840909  Z M 27.78623046875 32.9259019886364  C 2.57978515625 44.7051917613636  0.38896484375 38.8385653409091  0.38896484375 38.8385653409091  C -0.618115234375 36.523046875  0.481689453125 34.4879261363636  3.78642578125 31.6450710227273  C 4.28251953125 31.2229829545455  5.04228515625 31.3464275568182  5.439990234375 31.868046875  C 5.83291015625 32.3896164772727  5.731005859375 33.1362997159091  5.216455078125 33.5409872159091  C 1.997705078125 36.053828125  1.9154296875 37.1975923295455  2.538525390625 37.8612997159091  C 4.2595703125 39.6916903409091  17.655810546875 35.003828125  26.561669921875 30.8961008522727  C 37.6904296875 25.7670099431818  48.4875 17.0846732954545  47.69814453125 15.1384446022727  C 47.349365234375 14.2810440340909  46.7814453125 13.5051278409091  42.775439453125 14.1468110795455  C 42.143115234375 14.2483806818182  41.527880859375 13.8061079545455  41.427685546875 13.1504545454545  C 41.3279296875 12.5075284090909  41.76064453125 11.8588352272727  42.408740234375 11.7937073863636  C 46.718310546875 11.3048011363636  49.444189453125 12.1180539772727  49.91728515625 14.6043465909091  C 50.527294921875 17.8009801136364  46.078564453125 23.2796732954545  27.78623046875 32.9259019886364  Z M 41.785400390625 2.39590909090909  C 41.785400390625 1.17409090909091  40.80810546875 0.177734375000001  39.605615234375 0.177734375  C 38.405224609375 0.177734375  37.427490234375 1.17409090909091  37.427490234375 2.39590909090909  C 37.427490234375 3.62071022727273  38.406005859375 4.61473011363636  39.605615234375 4.61473011363636  C 40.80791015625 4.61473011363636  41.785400390625 3.62071022727273  41.785400390625 2.39590909090909  Z " fill-rule="nonzero" fill="#006dd2" stroke="none" transform="matrix(1 0 0 1 805 37 )" />
  </g>
</svg>