<?xml version="1.0" encoding="utf-8"?>
<svg version="1.1" xmlns:xlink="http://www.w3.org/1999/xlink" width="17px" height="14px" xmlns="http://www.w3.org/2000/svg">
  <g transform="matrix(1 0 0 1 -779 -129 )">
    <path d="M 16.5203481259763 5.70877673243175  L 16.5215572103186 5.70877673243175  L 9.21866640030338 0.249054352789649  C 8.78386626057553 -0.0749949972817114  8.15057029710792 -0.0749949972817114  7.71577015738007 0.249054352789649  L 0.411670247672707 5.70877673243175  C 0.0492596232283051 5.97859489881419  -0.0891443884466838 6.41910475930889  0.0634529286417278 6.81707670706243  C 0.219655421252196 7.21583487230137  0.632865085363111 7.48982371162381  1.10689577069282 7.50895716878403  L 1.10689577069282 12.9697555646625  C 1.10689577069282 13.5346657416623  1.62680355752996 13.9930499970728  2.26882923133877 14  L 14.6619800579679 14  C 15.3027966320846 13.9930500107332  15.8227044342715 13.5346657553227  15.8227044189217 12.9697555646625  L 15.8227044189217 7.51433726362625  C 16.2974944769901 7.49546557537351  16.711388793289 7.22091408082979  16.8673563453152 6.82138078566829  C 17.0202326378646 6.42362913081466  16.8823227672244 5.98316260116562  16.5203481259763 5.7130808110376  L 16.5203481259763 5.70877673243175  Z M 9.62733810529928 12.9740596432683  L 8.07970560356114 12.9740596432683  L 7.30588936804182 12.9740596432683  L 7.30588936804182 9.90310031614074  L 9.62733810529928 9.90310031614074  L 9.62733810529928 12.9740596432683  Z M 15.7695045543607 6.48996681497961  L 14.6631891423102 6.48996681497961  L 14.6631891423102 12.9740596432683  L 10.7904806502876 12.9740596432683  L 10.7904806502876 9.90310031614074  C 10.7878262141826 9.3366585973092  10.2711002940576 8.87871573763217  9.63460267838296 8.87871573763217  C 9.63258417174864 8.87871573763217  9.63056566857657 8.87872044304882  9.62854718964163 8.8787298538337  L 7.30468026834972 8.8787298538337  C 6.66386369423301 8.8787298538337  6.14395589204612 9.33711410924419  6.14395590739587 9.90310031614074  L 6.14395590739587 12.9740596432683  L 2.26882923133877 12.9740596432683  L 2.26882923133877 6.48996681497961  L 1.16372290363067 6.48996681497961  L 8.46661372899568 1.03024443533751  L 15.7695045543607 6.48996681497961  Z " fill-rule="nonzero" fill="#999999" stroke="none" transform="matrix(1 0 0 1 779 129 )" />
  </g>
</svg>