<?xml version="1.0" encoding="utf-8"?>
<svg version="1.1" xmlns:xlink="http://www.w3.org/1999/xlink" width="18px" height="19px" xmlns="http://www.w3.org/2000/svg">
  <g transform="matrix(1 0 0 1 -779 -188 )">
    <path d="M 3.05522089020143 8  L 13.9789156626506 8  C 14.8016064323701 7.65030928439111  15.4686345314853 8.25463918733892  15.4686345314853 9  L 15.4686345314853 15.2981443298969  C 15.4686345314853 16.0435579291159  14.8016646754432 16.6478350455058  13.9789156626506 16.6478350455058  L 3.05522089020143 16.6478350455058  C 2.23247185740696 16.6478350455058  1.56550200136483 16.0435579291159  1.56550200136483 15.2981443298969  L 1.56550200136483 9  C 1.56550200136483 8.25463916921714  2.23253012048193 7.65030928439111  3.05522089020143 8  Z M 16.9583534203219 9  C 16.9583534203219 7.50917279155362  15.6244136992825 6.30061855066044  13.9789156626506 6.30061855066044  L 3.05522089020143 6.30061855066044  C 1.40972285356951 6.30061855066044  0.0757831325301207 7.50917279155362  0.0757831325301203 9  L 0.0757831325301207 15.2981443298969  C 0.0761601406820502 16.788729966478  1.4099894449155 17.9969072495901  3.05522089020143 18  L 13.9789156626506 18  C 15.6241471079365 17.9969072495901  16.95797641217 16.788729966478  16.9583534203219 15.2981443298969  L 16.9583534203219 9  Z M 8.51775101068336 1.35278350515464  L 8.51706826642507 1.3521649544942  C 10.43631329311 1.3521649544942  11.9921687417634 2.7617756520613  11.9921687417634 4.50061856878222  L 11.9921686746988 6.30123711944266  L 5.04265060240964 6.30123711944266  L 5.04265060240964 4.50123711944266  C 5.04265060240964 2.76239420272174  6.59850605106302 1.35278350515464  8.51775101068336 1.35278350515464  Z M 8.51706826642507 0.00247422076353092  L 8.51775101068336 0.00309278954574859  C 5.77564657054709 0.00309275605562703  3.55262601085733 2.01688054282616  3.55224898931664 4.50123711944266  L 3.55224898931664 7.65030928439111  L 13.4832530120482 7.65030928439111  L 13.4832530120482 4.50185567010309  C 13.4832530589925 2.01663892675251  11.2601220882357 0.00247417823184297  8.51775105762763 0.00247417823184297  Z M 8.51775067748985 14.1736082474228  C 8.10675323481207 14.1736082474228  7.77357397732984 13.8717466278482  7.77357397732984 13.4993814493396  L 7.77357429052146 10.7993814493396  C 7.77357429052146 10.4270162658268  8.10675355248127 10.1251546421956  8.51775100068242 10.1251546421956  C 8.92874844888357 10.1251546421956  9.26192771084337 10.4270162658268  9.26192771084337 10.7993814493396  L 9.26192771084337 13.4987628805574  C 9.26192771084337 13.8711280771877  8.92874845336114 14.1729896967622  8.51775101068336 14.1729896967622  Z " fill-rule="nonzero" fill="#999999" stroke="none" transform="matrix(1 0 0 1 779 188 )" />
  </g>
</svg>