<?xml version="1.0" encoding="utf-8"?>
<svg version="1.1" xmlns:xlink="http://www.w3.org/1999/xlink" width="63px" height="62px" xmlns="http://www.w3.org/2000/svg">
  <defs>
    <mask fill="white" id="clip71">
      <path d="M 43.8822775676751 57.4238206129808  C 43.5088263833598 56.4650065104167  42.4056366938694 55.9917317708333  41.4285504578025 56.3623873197115  C 40.2912849383741 56.7949464737167  39.1263810885223 57.1525393439976  37.9414647193471 57.432825020032  C 35.9633402459702 57.902553757221  33.9391851761622 58.156088041256  31.9052709494427 58.1888847155449  C 16.6502015326433 58.4399989983974  4.08664535230891 46.4993013822115  3.83490868829617 31.5236528445513  C 3.58301527667196 16.5445888421474  15.7420058718153 4.19954677483975  30.996369924363 3.94788912259616  C 46.2508123507165 3.69646434294872  58.8167197452229 15.6394130608974  59.0695536425159 30.6167693309295  C 59.1962840863853 38.1982471955128  56.1278712181528 45.3318334334936  50.6932747810509 50.519769130609  C 50.3247462032332 50.8686193455684  50.1162812772659 51.3515588848197  50.1162812772659 51.8564591065172  C 50.1162812772659 52.3428546466424  50.309787658274 52.8096612594586  50.654871616242 53.1557316706731  C 51.3895143402841 53.8914994911855  52.5846619016079 53.9062656895953  53.337606986465 53.1888772035256  C 59.5103279259554 47.301159354968  63.0070536425159 39.1801933092949  62.8631593351911 30.5528846153846  C 62.5776435609076 13.5167793469551  48.2799101811306 -0.0616336137820482  30.9335141321656 0.224566806891031  C 13.5864910927548 0.508671374198723  -0.246485619028677 14.5521309094551  0.0387950338375639 31.5841997195513  C 0.324075686703806 48.6203826121795  14.6200848427548 62.1966997195513  31.9674997511942 61.9105769230769  C 34.2795614434276 61.874229320889  36.5806066362833 61.5865904673355  38.8292831906847 61.0528295272436  C 40.1786551748737 60.7359418253606  41.5048829093963 60.3291713966047  42.798916451035 59.8352939703526  C 43.7752973228503 59.4633964342949  44.2612149183917 58.3817032251603  43.8822775676751 57.4238206129808  Z " fill-rule="evenodd" />
    </mask>
  </defs>
  <g transform="matrix(1 0 0 1 -194 -12 )">
    <path d="M 43.8822775676751 57.4238206129808  C 43.5088263833598 56.4650065104167  42.4056366938694 55.9917317708333  41.4285504578025 56.3623873197115  C 40.2912849383741 56.7949464737167  39.1263810885223 57.1525393439976  37.9414647193471 57.432825020032  C 35.9633402459702 57.902553757221  33.9391851761622 58.156088041256  31.9052709494427 58.1888847155449  C 16.6502015326433 58.4399989983974  4.08664535230891 46.4993013822115  3.83490868829617 31.5236528445513  C 3.58301527667196 16.5445888421474  15.7420058718153 4.19954677483975  30.996369924363 3.94788912259616  C 46.2508123507165 3.69646434294872  58.8167197452229 15.6394130608974  59.0695536425159 30.6167693309295  C 59.1962840863853 38.1982471955128  56.1278712181528 45.3318334334936  50.6932747810509 50.519769130609  C 50.3247462032332 50.8686193455684  50.1162812772659 51.3515588848197  50.1162812772659 51.8564591065172  C 50.1162812772659 52.3428546466424  50.309787658274 52.8096612594586  50.654871616242 53.1557316706731  C 51.3895143402841 53.8914994911855  52.5846619016079 53.9062656895953  53.337606986465 53.1888772035256  C 59.5103279259554 47.301159354968  63.0070536425159 39.1801933092949  62.8631593351911 30.5528846153846  C 62.5776435609076 13.5167793469551  48.2799101811306 -0.0616336137820482  30.9335141321656 0.224566806891031  C 13.5864910927548 0.508671374198723  -0.246485619028677 14.5521309094551  0.0387950338375639 31.5841997195513  C 0.324075686703806 48.6203826121795  14.6200848427548 62.1966997195513  31.9674997511942 61.9105769230769  C 34.2795614434276 61.874229320889  36.5806066362833 61.5865904673355  38.8292831906847 61.0528295272436  C 40.1786551748737 60.7359418253606  41.5048829093963 60.3291713966047  42.798916451035 59.8352939703526  C 43.7752973228503 59.4633964342949  44.2612149183917 58.3817032251603  43.8822775676751 57.4238206129808  Z " fill-rule="nonzero" fill="#006dd2" stroke="none" transform="matrix(1 0 0 1 194 12 )" />
    <path d="M 43.8822775676751 57.4238206129808  C 43.5088263833598 56.4650065104167  42.4056366938694 55.9917317708333  41.4285504578025 56.3623873197115  C 40.2912849383741 56.7949464737167  39.1263810885223 57.1525393439976  37.9414647193471 57.432825020032  C 35.9633402459702 57.902553757221  33.9391851761622 58.156088041256  31.9052709494427 58.1888847155449  C 16.6502015326433 58.4399989983974  4.08664535230891 46.4993013822115  3.83490868829617 31.5236528445513  C 3.58301527667196 16.5445888421474  15.7420058718153 4.19954677483975  30.996369924363 3.94788912259616  C 46.2508123507165 3.69646434294872  58.8167197452229 15.6394130608974  59.0695536425159 30.6167693309295  C 59.1962840863853 38.1982471955128  56.1278712181528 45.3318334334936  50.6932747810509 50.519769130609  C 50.3247462032332 50.8686193455684  50.1162812772659 51.3515588848197  50.1162812772659 51.8564591065172  C 50.1162812772659 52.3428546466424  50.309787658274 52.8096612594586  50.654871616242 53.1557316706731  C 51.3895143402841 53.8914994911855  52.5846619016079 53.9062656895953  53.337606986465 53.1888772035256  C 59.5103279259554 47.301159354968  63.0070536425159 39.1801933092949  62.8631593351911 30.5528846153846  C 62.5776435609076 13.5167793469551  48.2799101811306 -0.0616336137820482  30.9335141321656 0.224566806891031  C 13.5864910927548 0.508671374198723  -0.246485619028677 14.5521309094551  0.0387950338375639 31.5841997195513  C 0.324075686703806 48.6203826121795  14.6200848427548 62.1966997195513  31.9674997511942 61.9105769230769  C 34.2795614434276 61.874229320889  36.5806066362833 61.5865904673355  38.8292831906847 61.0528295272436  C 40.1786551748737 60.7359418253606  41.5048829093963 60.3291713966047  42.798916451035 59.8352939703526  C 43.7752973228503 59.4633964342949  44.2612149183917 58.3817032251603  43.8822775676751 57.4238206129808  Z " stroke-width="106" stroke="#006dd2" fill="none" transform="matrix(1 0 0 1 194 12 )" mask="url(#clip71)" />
  </g>
</svg>