<?xml version="1.0" encoding="utf-8"?>
<svg version="1.1" xmlns:xlink="http://www.w3.org/1999/xlink" width="80px" height="67px" xmlns="http://www.w3.org/2000/svg">
  <defs>
    <mask fill="white" id="clip72">
      <path d="M 53.7753125 62.4037428977273  C 53.408671875 62.6402414772727  53.03203125 62.8656368371212  52.63734375 63.0964251893939  C 52.0546268710796 63.4341179260264  51.6949453740702 64.0629966679635  51.6949453740702 64.7441449358526  C 51.6949453740702 65.078137920404  51.7817956195705 65.4062127236879  51.94671875 65.6952130681818  C 52.46796875 66.6078184185606  53.625625 66.9211671401515  54.529296875 66.3905918560606  C 54.9626674931357 66.141544209878  55.3899323638872 65.8817030139224  55.810703125 65.6113044507576  C 56.3533398164325 65.263524047598  56.6824034180661 64.6575704305196  56.6824034180661 64.0061134087542  C 56.6824034180661 63.6426935304741  56.5796424836044 63.2869109733731  56.386328125 62.9810310132576  C 55.823671875 62.1022904829545  54.654296875 61.8400165719697  53.775390625 62.4036635890152  Z M 40.895703125 19.0333771306818  C 40.81765625 17.842001657197  39.799296875 16.9245584753788  38.615703125 16.9912571022727  C 38.123984375 17.0210771780303  37.62703125 17.0305149147727  37.115703125 17.0379699337121  C 35.9494884561459 17.0461517342862  35.0083368364917 18.0081888706867  35.0083368364917 19.192101730551  C 35.0083368364917 19.2048618997293  35.0084485204028 19.2176218170616  35.008671875 19.2303799715909  C 35.03265625 20.4309552556818  36.011640625 21.3892424242424  37.190703125 21.3747289299242  C 37.7646875 21.3686221590909  38.32703125 21.3483191287879  38.888359375 21.3184990530303  C 40.0156634040958 21.2595062542834  40.8998856216658 20.3144227457857  40.8998856216658 19.1685188276312  C 40.8998856216658 19.1234382517402  40.8984907683705 19.078368797684  40.895703125 19.0333771306818  Z M 18.36203125 37.0976811079545  C 19.53 37.3227592329545  20.659296875 36.5521957859848  20.886640625 35.3759682765152  C 22.078359375 29.2715767045455  26.45796875 24.227939157197  32.456953125 22.3072407670455  C 33.58796875 21.9441654829545  34.215 20.7213044507576  33.863359375 19.5843347537879  C 33.509296875 18.4432410037879  32.300703125 17.8141642992424  31.169609375 18.1773188920455  C 23.6546875 20.583545217803  18.156328125 26.907939157197  16.66765625 34.5611505681818  C 16.4403125 35.7394401041667  17.19765625 36.870303030303  18.36203125 37.0976811079545  Z M 44.45796875 52.5246531723485  C 4.12765625 71.3154249526515  0.62234375 61.9567589962121  0.62234375 61.9567589962121  C -0.988984375 58.2629557291667  0.770703125 55.0164535984849  6.05828125 50.4814228219697  C 6.85203125 49.8080918560606  8.06765625 50.0050153882576  8.703984375 50.8371223958333  C 9.33265625 51.669150094697  9.169609375 52.8602876420455  8.346328125 53.5058605587121  C 3.196328125 57.5144401041667  3.0646875 59.3390163352273  4.061640625 60.3977876420455  C 6.8153125 63.3176964962121  28.249296875 55.8394401041667  42.498671875 49.2866370738636  C 60.3046875 41.1045158617424  77.58 27.2541216856061  76.31703125 24.149423532197  C 75.758984375 22.7816654829545  74.8503125 21.5438944128788  68.440703125 22.5675319602273  C 67.428984375 22.7295596590909  66.444609375 22.0240293560606  66.284296875 20.9781060606061  C 66.1246875 19.9524857954545  66.81703125 18.917665719697  67.853984375 18.8137713068182  C 74.749296875 18.0338494318182  79.110703125 19.331181344697  79.86765625 23.2974100378788  C 80.843671875 28.3968016098485  73.725703125 37.1366216856061  44.45796875 52.5246531723485  Z M 66.856640625 3.82204545454546  C 66.856640625 1.87295454545455  65.29296875 0.283528645833335  63.368984375 0.283528645833334  C 61.448359375 0.283528645833334  59.883984375 1.87295454545455  59.883984375 3.82204545454546  C 59.883984375 5.77589488636364  61.449609375 7.36159327651515  63.368984375 7.36159327651515  C 65.29265625 7.36159327651515  66.856640625 5.77589488636364  66.856640625 3.82204545454546  Z " fill-rule="evenodd" />
    </mask>
  </defs>
  <g transform="matrix(1 0 0 1 -186 -5 )">
    <path d="M 53.7753125 62.4037428977273  C 53.408671875 62.6402414772727  53.03203125 62.8656368371212  52.63734375 63.0964251893939  C 52.0546268710796 63.4341179260264  51.6949453740702 64.0629966679635  51.6949453740702 64.7441449358526  C 51.6949453740702 65.078137920404  51.7817956195705 65.4062127236879  51.94671875 65.6952130681818  C 52.46796875 66.6078184185606  53.625625 66.9211671401515  54.529296875 66.3905918560606  C 54.9626674931357 66.141544209878  55.3899323638872 65.8817030139224  55.810703125 65.6113044507576  C 56.3533398164325 65.263524047598  56.6824034180661 64.6575704305196  56.6824034180661 64.0061134087542  C 56.6824034180661 63.6426935304741  56.5796424836044 63.2869109733731  56.386328125 62.9810310132576  C 55.823671875 62.1022904829545  54.654296875 61.8400165719697  53.775390625 62.4036635890152  Z M 40.895703125 19.0333771306818  C 40.81765625 17.842001657197  39.799296875 16.9245584753788  38.615703125 16.9912571022727  C 38.123984375 17.0210771780303  37.62703125 17.0305149147727  37.115703125 17.0379699337121  C 35.9494884561459 17.0461517342862  35.0083368364917 18.0081888706867  35.0083368364917 19.192101730551  C 35.0083368364917 19.2048618997293  35.0084485204028 19.2176218170616  35.008671875 19.2303799715909  C 35.03265625 20.4309552556818  36.011640625 21.3892424242424  37.190703125 21.3747289299242  C 37.7646875 21.3686221590909  38.32703125 21.3483191287879  38.888359375 21.3184990530303  C 40.0156634040958 21.2595062542834  40.8998856216658 20.3144227457857  40.8998856216658 19.1685188276312  C 40.8998856216658 19.1234382517402  40.8984907683705 19.078368797684  40.895703125 19.0333771306818  Z M 18.36203125 37.0976811079545  C 19.53 37.3227592329545  20.659296875 36.5521957859848  20.886640625 35.3759682765152  C 22.078359375 29.2715767045455  26.45796875 24.227939157197  32.456953125 22.3072407670455  C 33.58796875 21.9441654829545  34.215 20.7213044507576  33.863359375 19.5843347537879  C 33.509296875 18.4432410037879  32.300703125 17.8141642992424  31.169609375 18.1773188920455  C 23.6546875 20.583545217803  18.156328125 26.907939157197  16.66765625 34.5611505681818  C 16.4403125 35.7394401041667  17.19765625 36.870303030303  18.36203125 37.0976811079545  Z M 44.45796875 52.5246531723485  C 4.12765625 71.3154249526515  0.62234375 61.9567589962121  0.62234375 61.9567589962121  C -0.988984375 58.2629557291667  0.770703125 55.0164535984849  6.05828125 50.4814228219697  C 6.85203125 49.8080918560606  8.06765625 50.0050153882576  8.703984375 50.8371223958333  C 9.33265625 51.669150094697  9.169609375 52.8602876420455  8.346328125 53.5058605587121  C 3.196328125 57.5144401041667  3.0646875 59.3390163352273  4.061640625 60.3977876420455  C 6.8153125 63.3176964962121  28.249296875 55.8394401041667  42.498671875 49.2866370738636  C 60.3046875 41.1045158617424  77.58 27.2541216856061  76.31703125 24.149423532197  C 75.758984375 22.7816654829545  74.8503125 21.5438944128788  68.440703125 22.5675319602273  C 67.428984375 22.7295596590909  66.444609375 22.0240293560606  66.284296875 20.9781060606061  C 66.1246875 19.9524857954545  66.81703125 18.917665719697  67.853984375 18.8137713068182  C 74.749296875 18.0338494318182  79.110703125 19.331181344697  79.86765625 23.2974100378788  C 80.843671875 28.3968016098485  73.725703125 37.1366216856061  44.45796875 52.5246531723485  Z M 66.856640625 3.82204545454546  C 66.856640625 1.87295454545455  65.29296875 0.283528645833335  63.368984375 0.283528645833334  C 61.448359375 0.283528645833334  59.883984375 1.87295454545455  59.883984375 3.82204545454546  C 59.883984375 5.77589488636364  61.449609375 7.36159327651515  63.368984375 7.36159327651515  C 65.29265625 7.36159327651515  66.856640625 5.77589488636364  66.856640625 3.82204545454546  Z " fill-rule="nonzero" fill="#006dd2" stroke="none" transform="matrix(1 0 0 1 186 5 )" />
    <path d="M 53.7753125 62.4037428977273  C 53.408671875 62.6402414772727  53.03203125 62.8656368371212  52.63734375 63.0964251893939  C 52.0546268710796 63.4341179260264  51.6949453740702 64.0629966679635  51.6949453740702 64.7441449358526  C 51.6949453740702 65.078137920404  51.7817956195705 65.4062127236879  51.94671875 65.6952130681818  C 52.46796875 66.6078184185606  53.625625 66.9211671401515  54.529296875 66.3905918560606  C 54.9626674931357 66.141544209878  55.3899323638872 65.8817030139224  55.810703125 65.6113044507576  C 56.3533398164325 65.263524047598  56.6824034180661 64.6575704305196  56.6824034180661 64.0061134087542  C 56.6824034180661 63.6426935304741  56.5796424836044 63.2869109733731  56.386328125 62.9810310132576  C 55.823671875 62.1022904829545  54.654296875 61.8400165719697  53.775390625 62.4036635890152  Z " stroke-width="106" stroke="#006dd2" fill="none" transform="matrix(1 0 0 1 186 5 )" mask="url(#clip72)" />
    <path d="M 40.895703125 19.0333771306818  C 40.81765625 17.842001657197  39.799296875 16.9245584753788  38.615703125 16.9912571022727  C 38.123984375 17.0210771780303  37.62703125 17.0305149147727  37.115703125 17.0379699337121  C 35.9494884561459 17.0461517342862  35.0083368364917 18.0081888706867  35.0083368364917 19.192101730551  C 35.0083368364917 19.2048618997293  35.0084485204028 19.2176218170616  35.008671875 19.2303799715909  C 35.03265625 20.4309552556818  36.011640625 21.3892424242424  37.190703125 21.3747289299242  C 37.7646875 21.3686221590909  38.32703125 21.3483191287879  38.888359375 21.3184990530303  C 40.0156634040958 21.2595062542834  40.8998856216658 20.3144227457857  40.8998856216658 19.1685188276312  C 40.8998856216658 19.1234382517402  40.8984907683705 19.078368797684  40.895703125 19.0333771306818  Z " stroke-width="106" stroke="#006dd2" fill="none" transform="matrix(1 0 0 1 186 5 )" mask="url(#clip72)" />
    <path d="M 18.36203125 37.0976811079545  C 19.53 37.3227592329545  20.659296875 36.5521957859848  20.886640625 35.3759682765152  C 22.078359375 29.2715767045455  26.45796875 24.227939157197  32.456953125 22.3072407670455  C 33.58796875 21.9441654829545  34.215 20.7213044507576  33.863359375 19.5843347537879  C 33.509296875 18.4432410037879  32.300703125 17.8141642992424  31.169609375 18.1773188920455  C 23.6546875 20.583545217803  18.156328125 26.907939157197  16.66765625 34.5611505681818  C 16.4403125 35.7394401041667  17.19765625 36.870303030303  18.36203125 37.0976811079545  Z " stroke-width="106" stroke="#006dd2" fill="none" transform="matrix(1 0 0 1 186 5 )" mask="url(#clip72)" />
    <path d="M 44.45796875 52.5246531723485  C 4.12765625 71.3154249526515  0.62234375 61.9567589962121  0.62234375 61.9567589962121  C -0.988984375 58.2629557291667  0.770703125 55.0164535984849  6.05828125 50.4814228219697  C 6.85203125 49.8080918560606  8.06765625 50.0050153882576  8.703984375 50.8371223958333  C 9.33265625 51.669150094697  9.169609375 52.8602876420455  8.346328125 53.5058605587121  C 3.196328125 57.5144401041667  3.0646875 59.3390163352273  4.061640625 60.3977876420455  C 6.8153125 63.3176964962121  28.249296875 55.8394401041667  42.498671875 49.2866370738636  C 60.3046875 41.1045158617424  77.58 27.2541216856061  76.31703125 24.149423532197  C 75.758984375 22.7816654829545  74.8503125 21.5438944128788  68.440703125 22.5675319602273  C 67.428984375 22.7295596590909  66.444609375 22.0240293560606  66.284296875 20.9781060606061  C 66.1246875 19.9524857954545  66.81703125 18.917665719697  67.853984375 18.8137713068182  C 74.749296875 18.0338494318182  79.110703125 19.331181344697  79.86765625 23.2974100378788  C 80.843671875 28.3968016098485  73.725703125 37.1366216856061  44.45796875 52.5246531723485  Z " stroke-width="106" stroke="#006dd2" fill="none" transform="matrix(1 0 0 1 186 5 )" mask="url(#clip72)" />
    <path d="M 66.856640625 3.82204545454546  C 66.856640625 1.87295454545455  65.29296875 0.283528645833335  63.368984375 0.283528645833334  C 61.448359375 0.283528645833334  59.883984375 1.87295454545455  59.883984375 3.82204545454546  C 59.883984375 5.77589488636364  61.449609375 7.36159327651515  63.368984375 7.36159327651515  C 65.29265625 7.36159327651515  66.856640625 5.77589488636364  66.856640625 3.82204545454546  Z " stroke-width="106" stroke="#006dd2" fill="none" transform="matrix(1 0 0 1 186 5 )" mask="url(#clip72)" />
  </g>
</svg>