<?xml version="1.0" encoding="utf-8"?>
<svg version="1.1" xmlns:xlink="http://www.w3.org/1999/xlink" width="40px" height="46px" xmlns="http://www.w3.org/2000/svg">
  <g transform="matrix(1 0 0 1 -1618 -19 )">
    <path d="M 39.9784128289474 44.5931285511364  C 39.9938322368421 44.4297762784091  39.9629934210526 44.2664240056818  39.9013157894737 44.11328125  C 39.2588404605263 35.74658203125  33.8363486842105 28.7377485795455  26.0187088815789 26.1190074573864  C 30.4389391447368 23.7503995028409  33.2709703947368 19.0080788352273  33.2761101973684 13.9084250710227  C 33.2709703947368 6.39932528409091  27.3499177631579 0.27871981534091  20 0.100053267045455  C 12.6500822368421 0.27871981534091  6.72902960526316 6.39422052556818  6.72388980263158 13.9084250710227  C 6.72902960526316 19.0080788352273  9.56106085526316 23.7555042613636  13.9812911184211 26.1190074573864  C 6.16365131578947 28.7377485795454  0.741159539473682 35.74658203125  0.0986842105263139 44.11328125  C 0.0421463815789455 44.2664240056818  0.00616776315789287 44.4297762784091  0.0113075657894709 44.5931285511364  C 0.0113075657894709 45.2873757102273  0.540707236842102 45.8386896306818  1.20888157894737 45.8948419744318  L 1.42989309210526 45.8948419744318  C 2.03125 45.8386896306818  2.51953125 45.3792613636364  2.60176809210526 44.7768998579545  L 2.65830592105263 44.7768998579545  L 2.66858552631579 44.6033380681818  C 3.23396381578947 35.2565252130682  10.8203125 27.9209872159091  19.9948601973684 27.7474254261364  C 29.1694078947368 27.9158824573864  36.7557565789474 35.2565252130682  37.3211348684211 44.6033380681818  L 37.3314144736842 44.7768998579545  L 37.3879523026316 44.7768998579545  C 37.4701891447369 45.3792613636364  37.9584703947369 45.8386896306818  38.5598273026316 45.8948419744318  L 38.7808388157895 45.8948419744318  C 39.4490131578947 45.8386896306818  39.9784128289474 45.2822709517045  39.9784128289474 44.5931285511364  Z M 20 25.07763671875  C 14.0892269736842 24.8989701704546  9.32462993421053 19.9677734375  9.32462993421053 13.9135298295455  C 9.32976973684211 7.86439098011364  14.0892269736842 2.93319424715909  20 2.75963245738636  C 25.9107730263158 2.93829900568182  30.6702302631579 7.86439098011364  30.6753700657895 13.9186345880682  C 30.6753700657895 19.9728781960227  25.9107730263158 24.9040749289773  20 25.07763671875  Z " fill-rule="nonzero" fill="#004686" stroke="none" transform="matrix(1 0 0 1 1618 19 )" />
  </g>
</svg>